<mxfile host="65bd71144e">
    <diagram id="1j03yni_s60jO-Ef9m9z" name="Page-1">
        <mxGraphModel dx="2018" dy="990" grid="1" gridSize="10" guides="1" tooltips="1" connect="1" arrows="1" fold="1" page="1" pageScale="1" pageWidth="1169" pageHeight="827" math="0" shadow="0">
            <root>
                <mxCell id="0"/>
                <mxCell id="1" parent="0"/>
                <mxCell id="2" style="edgeStyle=orthogonalEdgeStyle;rounded=0;html=1;exitX=0.5;exitY=1;entryX=0.5;entryY=0;startArrow=none;startFill=0;endArrow=classic;endFill=1;jettySize=auto;orthogonalLoop=1;strokeColor=#FFFFFF;strokeWidth=3;fontSize=16;fontColor=#FFFFFF;" edge="1" parent="1" source="3" target="12">
                    <mxGeometry relative="1" as="geometry"/>
                </mxCell>
                <mxCell id="3" value="Sign Up" style="rounded=0;whiteSpace=wrap;html=1;shadow=0;labelBackgroundColor=none;strokeColor=#FFFFFF;strokeWidth=2;fillColor=none;fontSize=16;fontColor=#FFFFFF;align=center;" vertex="1" parent="1">
                    <mxGeometry x="150" y="220" width="120" height="60" as="geometry"/>
                </mxCell>
                <mxCell id="4" value="Login" style="rounded=0;whiteSpace=wrap;html=1;shadow=0;labelBackgroundColor=none;strokeColor=#FFFFFF;strokeWidth=2;fillColor=none;fontSize=16;fontColor=#FFFFFF;align=center;" vertex="1" parent="1">
                    <mxGeometry x="150" y="440" width="120" height="60" as="geometry"/>
                </mxCell>
                <mxCell id="5" value="Email and Password Flow" style="text;html=1;strokeColor=#FFFFFF;fillColor=none;align=center;verticalAlign=middle;whiteSpace=wrap;rounded=0;shadow=0;labelBackgroundColor=none;fontSize=16;fontColor=#FFFFFF;fontStyle=1" vertex="1" parent="1">
                    <mxGeometry x="90" y="160" width="240" height="60" as="geometry"/>
                </mxCell>
                <mxCell id="6" value="Here's an email/password" style="text;html=1;strokeColor=none;fillColor=none;align=center;verticalAlign=middle;whiteSpace=wrap;rounded=0;shadow=0;labelBackgroundColor=none;fontSize=16;fontColor=#FFFFFF;fontStyle=2" vertex="1" parent="1">
                    <mxGeometry x="270" y="230" width="120" height="40" as="geometry"/>
                </mxCell>
                <mxCell id="7" value="Here's an email/password" style="text;html=1;strokeColor=none;fillColor=none;align=center;verticalAlign=middle;whiteSpace=wrap;rounded=0;shadow=0;labelBackgroundColor=none;fontSize=16;fontColor=#FFFFFF;fontStyle=2" vertex="1" parent="1">
                    <mxGeometry x="270" y="450" width="120" height="40" as="geometry"/>
                </mxCell>
                <mxCell id="8" value="" style="endArrow=classic;html=1;strokeColor=#FFFFFF;strokeWidth=3;fontSize=16;fontColor=#FFFFFF;" edge="1" parent="1">
                    <mxGeometry width="50" height="50" relative="1" as="geometry">
                        <mxPoint x="120" y="220" as="sourcePoint"/>
                        <mxPoint x="120" y="510" as="targetPoint"/>
                    </mxGeometry>
                </mxCell>
                <mxCell id="9" value="Time" style="text;html=1;strokeColor=none;fillColor=none;align=center;verticalAlign=middle;whiteSpace=wrap;rounded=0;shadow=0;labelBackgroundColor=none;fontSize=16;fontColor=#FFFFFF;" vertex="1" parent="1">
                    <mxGeometry x="60" y="230" width="60" height="20" as="geometry"/>
                </mxCell>
                <mxCell id="10" value="The two email/password combinations are the same? &amp;nbsp;Great, must be the same person!" style="text;html=1;strokeColor=#3A5431;fillColor=#6d8764;align=center;verticalAlign=middle;whiteSpace=wrap;rounded=0;shadow=0;labelBackgroundColor=none;fontSize=16;fontColor=#ffffff;fillStyle=hatch;" vertex="1" parent="1">
                    <mxGeometry x="150" y="510" width="220" height="80" as="geometry"/>
                </mxCell>
                <mxCell id="11" style="edgeStyle=orthogonalEdgeStyle;rounded=0;html=1;exitX=0.5;exitY=1;entryX=0.5;entryY=0;startArrow=none;startFill=0;endArrow=classic;endFill=1;jettySize=auto;orthogonalLoop=1;strokeColor=#FFFFFF;strokeWidth=3;fontSize=16;fontColor=#FFFFFF;" edge="1" parent="1" source="12" target="4">
                    <mxGeometry relative="1" as="geometry"/>
                </mxCell>
                <mxCell id="12" value="Sign out" style="rounded=0;whiteSpace=wrap;html=1;shadow=0;labelBackgroundColor=none;strokeColor=#FFFFFF;strokeWidth=2;fillColor=none;fontSize=16;fontColor=#FFFFFF;align=center;" vertex="1" parent="1">
                    <mxGeometry x="150" y="330" width="120" height="60" as="geometry"/>
                </mxCell>
                <mxCell id="13" style="edgeStyle=orthogonalEdgeStyle;rounded=0;html=1;exitX=0.5;exitY=1;entryX=0.5;entryY=0;startArrow=none;startFill=0;endArrow=classic;endFill=1;jettySize=auto;orthogonalLoop=1;strokeColor=#FFFFFF;strokeWidth=3;fontSize=16;fontColor=#FFFFFF;" edge="1" parent="1" source="14" target="23">
                    <mxGeometry relative="1" as="geometry"/>
                </mxCell>
                <mxCell id="14" value="Sign Up" style="rounded=0;whiteSpace=wrap;html=1;shadow=0;labelBackgroundColor=none;strokeColor=#FFFFFF;strokeWidth=2;fillColor=none;fontSize=16;fontColor=#FFFFFF;align=center;" vertex="1" parent="1">
                    <mxGeometry x="740" y="210" width="120" height="60" as="geometry"/>
                </mxCell>
                <mxCell id="15" value="Login" style="rounded=0;whiteSpace=wrap;html=1;shadow=0;labelBackgroundColor=none;strokeColor=#FFFFFF;strokeWidth=2;fillColor=none;fontSize=16;fontColor=#FFFFFF;align=center;" vertex="1" parent="1">
                    <mxGeometry x="740" y="430" width="120" height="60" as="geometry"/>
                </mxCell>
                <mxCell id="16" value="OAuth Flow" style="text;html=1;strokeColor=#FFFFFF;fillColor=none;align=center;verticalAlign=middle;whiteSpace=wrap;rounded=0;shadow=0;labelBackgroundColor=none;fontSize=16;fontColor=#FFFFFF;fontStyle=1" vertex="1" parent="1">
                    <mxGeometry x="690" y="160" width="240" height="50" as="geometry"/>
                </mxCell>
                <mxCell id="17" value="Here's a google profile" style="text;html=1;strokeColor=none;fillColor=none;align=center;verticalAlign=middle;whiteSpace=wrap;rounded=0;shadow=0;labelBackgroundColor=none;fontSize=16;fontColor=#FFFFFF;fontStyle=2" vertex="1" parent="1">
                    <mxGeometry x="860" y="220" width="120" height="40" as="geometry"/>
                </mxCell>
                <mxCell id="18" value="Here's a google profile" style="text;html=1;strokeColor=none;fillColor=none;align=center;verticalAlign=middle;whiteSpace=wrap;rounded=0;shadow=0;labelBackgroundColor=none;fontSize=16;fontColor=#FFFFFF;fontStyle=2" vertex="1" parent="1">
                    <mxGeometry x="860" y="440" width="120" height="40" as="geometry"/>
                </mxCell>
                <mxCell id="19" value="" style="endArrow=classic;html=1;strokeColor=#FFFFFF;strokeWidth=3;fontSize=16;fontColor=#FFFFFF;" edge="1" parent="1">
                    <mxGeometry width="50" height="50" relative="1" as="geometry">
                        <mxPoint x="710" y="210" as="sourcePoint"/>
                        <mxPoint x="710" y="500" as="targetPoint"/>
                    </mxGeometry>
                </mxCell>
                <mxCell id="20" value="Time" style="text;html=1;strokeColor=none;fillColor=none;align=center;verticalAlign=middle;whiteSpace=wrap;rounded=0;shadow=0;labelBackgroundColor=none;fontSize=16;fontColor=#FFFFFF;" vertex="1" parent="1">
                    <mxGeometry x="650" y="220" width="60" height="20" as="geometry"/>
                </mxCell>
                <mxCell id="21" value="We need to find some unique identifying token in the user's Google profile. &amp;nbsp;Is that consistent between logins? &amp;nbsp;Use that to decide if the user is the same" style="text;html=1;strokeColor=#3A5431;fillColor=#6d8764;align=center;verticalAlign=middle;whiteSpace=wrap;rounded=0;shadow=0;labelBackgroundColor=none;fontSize=16;fontColor=#ffffff;fillStyle=hatch;" vertex="1" parent="1">
                    <mxGeometry x="740" y="500" width="240" height="110" as="geometry"/>
                </mxCell>
                <mxCell id="22" style="edgeStyle=orthogonalEdgeStyle;rounded=0;html=1;exitX=0.5;exitY=1;entryX=0.5;entryY=0;startArrow=none;startFill=0;endArrow=classic;endFill=1;jettySize=auto;orthogonalLoop=1;strokeColor=#FFFFFF;strokeWidth=3;fontSize=16;fontColor=#FFFFFF;" edge="1" parent="1" source="23" target="15">
                    <mxGeometry relative="1" as="geometry"/>
                </mxCell>
                <mxCell id="23" value="Sign out" style="rounded=0;whiteSpace=wrap;html=1;shadow=0;labelBackgroundColor=none;strokeColor=#FFFFFF;strokeWidth=2;fillColor=none;fontSize=16;fontColor=#FFFFFF;align=center;" vertex="1" parent="1">
                    <mxGeometry x="740" y="320" width="120" height="60" as="geometry"/>
                </mxCell>
            </root>
        </mxGraphModel>
    </diagram>
</mxfile>